REM DIRINDEX 1\2\6,1\2\7,1\2\8,1\2\9,1\3\10,1\3\11,1\4\12,1\4\13,1\4\14,1\5\15,1\5\16,1\5\17
REM DIRNAME folder01,folder02,folder03,folder04,folder05,folder06,folder07,folder08,folder09,folder10,folder11,folder12,folder13,folder14,folder15,folder16,folder17
TITLE ""
FILE "1900_2_sec07_0615_0630.mp3" MP3
  TRACK 01 AUDIO
    TITLE "0:"
    INDEX 01 00:00:00
  TRACK 02 AUDIO
    TITLE "13:cjc020_3341"
    INDEX 01 00:00:17
  TRACK 03 AUDIO
    TITLE "0:"
    INDEX 01 00:01:21
  TRACK 04 AUDIO
    TITLE "14:cjc020_3342"
    INDEX 01 00:01:24
  TRACK 05 AUDIO
    TITLE "0:"
    INDEX 01 00:04:60
  TRACK 06 AUDIO
    TITLE "13:cjc020_3343"
    INDEX 01 00:05:40
  TRACK 07 AUDIO
    TITLE "0:"
    INDEX 01 00:06:41
  TRACK 08 AUDIO
    TITLE "14:cjc020_3344"
    INDEX 01 00:06:49
  TRACK 09 AUDIO
    TITLE "0:"
    INDEX 01 00:08:72
  TRACK 10 AUDIO
    TITLE "13:cjc020_3345"
    INDEX 01 00:09:55
  TRACK 11 AUDIO
    TITLE "0:"
    INDEX 01 00:10:65
  TRACK 12 AUDIO
    TITLE "14:cjc020_3346"
    INDEX 01 00:10:68
  TRACK 13 AUDIO
    TITLE "0:"
    INDEX 01 00:15:15
  TRACK 14 AUDIO
    TITLE "13:cjc020_3347"
    INDEX 01 00:15:70
  TRACK 15 AUDIO
    TITLE "0:"
    INDEX 01 00:17:08
  TRACK 16 AUDIO
    TITLE "14:cjc020_3348"
    INDEX 01 00:17:12
  TRACK 17 AUDIO
    TITLE "0:"
    INDEX 01 00:21:35
  TRACK 18 AUDIO
    TITLE "13:cjc020_3349"
    INDEX 01 00:22:13
  TRACK 19 AUDIO
    TITLE "0:"
    INDEX 01 00:23:18
  TRACK 20 AUDIO
    TITLE "14:cjc020_3350"
    INDEX 01 00:23:22
  TRACK 21 AUDIO
    TITLE "0:"
    INDEX 01 00:25:54
  TRACK 22 AUDIO
    TITLE "13:cjc020_3351"
    INDEX 01 00:26:32
  TRACK 23 AUDIO
    TITLE "0:"
    INDEX 01 00:27:41
  TRACK 24 AUDIO
    TITLE "14:cjc020_3352"
    INDEX 01 00:27:47
  TRACK 25 AUDIO
    TITLE "0:"
    INDEX 01 00:30:38
  TRACK 26 AUDIO
    TITLE "13:cjc020_3353"
    INDEX 01 00:31:18
  TRACK 27 AUDIO
    TITLE "0:"
    INDEX 01 00:32:29
  TRACK 28 AUDIO
    TITLE "14:cjc020_3354"
    INDEX 01 00:32:31
  TRACK 29 AUDIO
    TITLE "0:"
    INDEX 01 00:34:65
  TRACK 30 AUDIO
    TITLE "13:cjc020_3355"
    INDEX 01 00:35:43
  TRACK 31 AUDIO
    TITLE "0:"
    INDEX 01 00:36:50
  TRACK 32 AUDIO
    TITLE "14:cjc020_3356"
    INDEX 01 00:36:56
  TRACK 33 AUDIO
    TITLE "0:"
    INDEX 01 00:39:39
  TRACK 34 AUDIO
    TITLE "13:cjc020_3357"
    INDEX 01 00:40:17
  TRACK 35 AUDIO
    TITLE "0:"
    INDEX 01 00:41:26
  TRACK 36 AUDIO
    TITLE "14:cjc020_3358"
    INDEX 01 00:41:28
  TRACK 37 AUDIO
    TITLE "0:"
    INDEX 01 00:42:59
  TRACK 38 AUDIO
    TITLE "13:cjc020_3359"
    INDEX 01 00:43:37
  TRACK 39 AUDIO
    TITLE "0:"
    INDEX 01 00:44:50
  TRACK 40 AUDIO
    TITLE "14:cjc020_3360"
    INDEX 01 00:44:52
  TRACK 41 AUDIO
    TITLE "0:"
    INDEX 01 00:47:27
  TRACK 42 AUDIO
    TITLE "13:cjc020_3361"
    INDEX 01 00:48:04
  TRACK 43 AUDIO
    TITLE "0:"
    INDEX 01 00:49:18
  TRACK 44 AUDIO
    TITLE "14:cjc020_3362"
    INDEX 01 00:49:20
  TRACK 45 AUDIO
    TITLE "0:"
    INDEX 01 00:51:38
  TRACK 46 AUDIO
    TITLE "13:cjc020_3363"
    INDEX 01 00:52:18
  TRACK 47 AUDIO
    TITLE "0:"
    INDEX 01 00:53:33
  TRACK 48 AUDIO
    TITLE "14:cjc020_3364"
    INDEX 01 00:53:35
  TRACK 49 AUDIO
    TITLE "0:"
    INDEX 01 00:55:03
  TRACK 50 AUDIO
    TITLE "13:cjc020_3365"
    INDEX 01 00:55:55
  TRACK 51 AUDIO
    TITLE "0:"
    INDEX 01 00:56:71
  TRACK 52 AUDIO
    TITLE "14:cjc020_3366"
    INDEX 01 00:56:74
  TRACK 53 AUDIO
    TITLE "0:"
    INDEX 01 01:01:17
  TRACK 54 AUDIO
    TITLE "13:cjc020_3367"
    INDEX 01 01:01:74
  TRACK 55 AUDIO
    TITLE "0:"
    INDEX 01 01:03:16
  TRACK 56 AUDIO
    TITLE "14:cjc020_3368"
    INDEX 01 01:03:18
  TRACK 57 AUDIO
    TITLE "0:"
    INDEX 01 01:07:02
  TRACK 58 AUDIO
    TITLE "13:cjc020_3369"
    INDEX 01 01:07:55
  TRACK 59 AUDIO
    TITLE "0:"
    INDEX 01 01:08:50
  TRACK 60 AUDIO
    TITLE "14:cjc020_3370"
    INDEX 01 01:08:54
  TRACK 61 AUDIO
    TITLE "0:"
    INDEX 01 01:10:14
  TRACK 62 AUDIO
    TITLE "13:cjc020_3371"
    INDEX 01 01:10:65
  TRACK 63 AUDIO
    TITLE "0:"
    INDEX 01 01:11:58
  TRACK 64 AUDIO
    TITLE "14:cjc020_3372"
    INDEX 01 01:11:60
  TRACK 65 AUDIO
    TITLE "0:"
    INDEX 01 01:13:47
